<svg width="34" height="33" viewBox="0 0 34 33" fill="none" xmlns="http://www.w3.org/2000/svg">
<path d="M29.375 3.71235L28.7562 3.0936C27.4156 1.75298 25.1469 1.75298 23.8062 3.0936L22.5687 4.3311C20.4031 3.29985 17.9281 2.88735 15.35 3.19673C9.26562 3.9186 4.41875 8.76548 3.69687 14.8499C2.76875 22.9967 9.05937 29.9061 17 29.9061C19.2687 29.9061 21.4344 29.3905 23.2906 28.3592L25.5594 30.628C25.6625 30.7311 25.7656 30.8342 25.8687 30.8342H25.9719H26.075C26.1781 30.8342 26.1781 30.8342 26.2812 30.8342C26.3844 30.8342 26.3844 30.8342 26.4875 30.8342H26.5906H26.6937C26.7969 30.8342 26.9 30.7311 27.0031 30.628C27.1062 30.5249 27.2094 30.4217 27.2094 30.3186V30.2155V30.1124V30.0092V25.1624C29.1687 22.7905 30.3031 19.7999 30.3031 16.603C30.3031 14.0249 29.5812 11.7561 28.3437 9.6936L29.375 8.66235C30.7156 7.32173 30.7156 5.05298 29.375 3.71235ZM27.3125 17.5311H28.3437C28.0344 20.9342 26.1781 23.9249 23.4969 25.7811C23.0844 26.0905 22.6719 26.2967 22.2594 26.503C21.0219 27.1217 19.5781 27.6374 18.1344 27.7405V26.7092C18.1344 26.1936 17.6187 25.678 17.1031 25.678C16.5875 25.678 16.0719 26.1936 16.0719 26.7092V27.7405C10.6062 27.2249 6.275 22.8936 5.75937 17.428H6.79062C7.30625 17.428 7.82187 16.9124 7.82187 16.3967C7.82187 15.8811 7.30625 15.3655 6.79062 15.3655H5.65625C6.17187 10.003 10.5031 5.67173 15.9687 5.1561V6.18735C15.9687 6.70298 16.4844 7.2186 17 7.2186C17.5156 7.2186 18.0312 6.70298 18.0312 6.18735V5.1561C23.4969 5.67173 27.8281 10.003 28.3437 15.4686H27.3125C26.7969 15.4686 26.2812 15.9842 26.2812 16.4999C26.2812 17.0155 26.7969 17.5311 27.3125 17.5311Z" fill="#FCC822"/>
<path d="M17 7.2186V3.0936C15.0406 3.0936 13.0813 3.5061 11.4313 4.3311L10.1937 3.0936C8.85312 1.75298 6.58437 1.75298 5.24375 3.0936L4.625 3.71235C3.28438 5.05298 3.28438 7.32173 4.625 8.66235L5.55313 9.59048C4.31563 11.653 3.59375 13.9217 3.59375 16.4999C3.59375 19.6967 4.72812 22.6874 6.6875 25.0592V29.9061C6.6875 30.0092 6.6875 30.1124 6.6875 30.2155V30.3186C6.6875 30.3186 6.6875 30.3186 6.6875 30.4217C6.6875 30.5249 6.79062 30.628 6.89375 30.7311C6.99687 30.8342 7.1 30.8342 7.20312 30.9374C7.20312 30.9374 7.20312 30.9374 7.30625 30.9374H7.40937C7.5125 30.9374 7.61562 30.9374 7.71875 30.9374C7.82188 30.9374 7.925 30.9374 8.02813 30.9374H8.13125C8.13125 30.9374 8.13125 30.9374 8.23438 30.9374C8.3375 30.9374 8.44063 30.8342 8.54375 30.7311L10.8125 28.4624C12.6687 29.4936 14.8344 30.0092 17.1031 30.0092V25.8842C16.5875 25.8842 16.0719 26.3999 16.0719 26.9155V27.9467C14.525 27.8436 13.1844 27.4311 11.9469 26.7092C11.5344 26.503 11.1219 26.1936 10.7094 25.9874C8.02812 24.1311 6.17187 21.1405 5.8625 17.7374H6.89375C7.40937 17.7374 7.925 17.2217 7.925 16.7061C7.925 16.1905 7.40937 15.6749 6.89375 15.6749H5.65625C6.17188 10.003 10.5031 5.67173 15.9688 5.1561V6.18735C15.9688 6.70298 16.4844 7.2186 17 7.2186Z" fill="#FCC822"/>
<path d="M15.3673 13.7472C15.2227 13.0178 14.7725 12.653 14.0168 12.653C13.432 12.653 12.995 12.8798 12.7058 13.3332C12.4167 13.78 12.2754 14.5193 12.282 15.551C12.4331 15.2093 12.6828 14.9432 13.0311 14.7526C13.386 14.5555 13.7803 14.4569 14.214 14.4569C14.8908 14.4569 15.4297 14.6672 15.8305 15.0878C16.238 15.5083 16.4417 16.0899 16.4417 16.8325C16.4417 17.2793 16.353 17.6802 16.1755 18.035C16.0047 18.3899 15.7418 18.6725 15.387 18.8828C15.0387 19.093 14.6148 19.1982 14.1154 19.1982C13.4385 19.1982 12.9095 19.047 12.5284 18.7448C12.1473 18.4425 11.8811 18.0252 11.73 17.4929C11.5788 16.9606 11.5033 16.3035 11.5033 15.5215C11.5033 13.1098 12.3444 11.9039 14.0267 11.9039C14.6707 11.9039 15.1767 12.078 15.5447 12.4263C15.9127 12.7746 16.1295 13.2149 16.1953 13.7472H15.3673ZM14.0267 15.2159C13.7441 15.2159 13.478 15.275 13.2283 15.3933C12.9785 15.505 12.7748 15.6792 12.6171 15.9158C12.466 16.1458 12.3904 16.4283 12.3904 16.7635C12.3904 17.2629 12.535 17.6703 12.8241 17.9858C13.1133 18.2946 13.5273 18.449 14.0661 18.449C14.5261 18.449 14.8908 18.3078 15.1603 18.0252C15.4363 17.736 15.5743 17.3483 15.5743 16.862C15.5743 16.3495 15.4428 15.9486 15.18 15.6595C14.9171 15.3638 14.5327 15.2159 14.0267 15.2159ZM17.6518 15.5412C17.6518 14.4109 17.8358 13.5303 18.2038 12.8995C18.5718 12.262 19.2158 11.9433 20.1358 11.9433C21.0492 11.9433 21.6899 12.262 22.0579 12.8995C22.4259 13.5303 22.6099 14.4109 22.6099 15.5412C22.6099 16.6912 22.4259 17.5849 22.0579 18.2223C21.6899 18.8598 21.0492 19.1785 20.1358 19.1785C19.2158 19.1785 18.5718 18.8598 18.2038 18.2223C17.8358 17.5849 17.6518 16.6912 17.6518 15.5412ZM21.7228 15.5412C21.7228 14.9695 21.6834 14.4865 21.6045 14.0922C21.5322 13.6913 21.3778 13.3693 21.1412 13.1262C20.9112 12.883 20.5761 12.7615 20.1358 12.7615C19.6889 12.7615 19.3472 12.883 19.1107 13.1262C18.8807 13.3693 18.7262 13.6913 18.6474 14.0922C18.5751 14.4865 18.5389 14.9695 18.5389 15.5412C18.5389 16.1326 18.5751 16.6288 18.6474 17.0296C18.7262 17.4305 18.8807 17.7525 19.1107 17.9956C19.3472 18.2388 19.6889 18.3603 20.1358 18.3603C20.5761 18.3603 20.9112 18.2388 21.1412 17.9956C21.3778 17.7525 21.5322 17.4305 21.6045 17.0296C21.6834 16.6288 21.7228 16.1326 21.7228 15.5412Z" fill="#122738"/>
</svg>
