<svg width="16" height="20" viewBox="0 0 16 20" fill="none" xmlns="http://www.w3.org/2000/svg">
<path d="M0.727104 16.4008C0.0718485 12.8421 2.60853 10.7911 4.10096 9.85703C1.13084 6.86866 2.48891 2.87299 4.10096 1.53755C5.97669 -0.0163069 9.33418 -0.722167 11.5264 1.94724C14.2334 5.24356 12.6548 8.53902 11.5264 9.85703C12.2544 10.4979 14.7571 12.1639 15.1241 15.5883C15.5872 19.9087 1.54617 20.8493 0.727104 16.4008Z" fill="#FCC822"/>
<path d="M0.727104 16.4008C0.0718485 12.8421 2.60853 10.7911 4.10096 9.85703C1.13084 6.86866 2.48891 2.87299 4.10096 1.53755C5.97669 -0.0163069 9.33418 -0.722167 11.5264 1.94724C14.2334 5.24356 12.6548 8.53902 11.5264 9.85703C12.2544 10.4979 14.7571 12.1639 15.1241 15.5883C15.5872 19.9087 1.54617 20.8493 0.727104 16.4008Z" stroke="#FCC822" stroke-width="0.29551"/>
</svg>
